<svg xmlns="http://www.w3.org/2000/svg" xmlns:xlink="http://www.w3.org/1999/xlink" width="48" height="48" viewBox="0 0 48 48"><defs><path id="x6jda" d="M1046.998 3155.497c0 4.136-3.029 7.5-6.75 7.5a1.5 1.5 0 1 0 0-3c2.069 0 3.75-2.02 3.75-4.5a1.5 1.5 0 1 0 3 0zm-7.125 7.454a1.5 1.5 0 0 0 0-2.907c.12-.03.245-.047.374-.047-1.568 0-2.985-1.2-3.529-2.984a5.3 5.3 0 0 1-.22-1.516 1.5 1.5 0 1 1-3 0c0 .812.117 1.613.349 2.386a7.86 7.86 0 0 0 1.002 2.114h4.649c.13 0 .255.017.375.048a1.501 1.501 0 0 0 0 2.906c-.042.01-.084.02-.126.026.165.014.332.02.5.02-.129 0-.255-.016-.374-.046zm4.124-44.208a.745.745 0 0 0-.743-.746h-30.01a.746.746 0 0 0-.746.746v32.253h-3v-32.253a3.75 3.75 0 0 1 3.746-3.746h30.01a3.749 3.749 0 0 1 3.744 3.746v36.754c0-.83-.67-1.5-1.5-1.5s-1.5.671-1.5 1.5zm-31.5 32.253h20.251a3.753 3.753 0 0 1 3.75 3.75v.75c0-.828-.67-1.498-1.5-1.498s-1.5.67-1.5 1.499v-.75a.75.75 0 0 0-.75-.75h-30a.75.75 0 0 0-.75.75v.75c0 2.48 2.019 4.5 4.5 4.5h28.35c1.156 1.71 2.931 2.818 4.899 2.98-.081.014-.165.02-.25.02h-33c-4.134 0-7.499-3.364-7.499-7.5v-.75a3.754 3.754 0 0 1 3.75-3.751h6.75v1.5a1.5 1.5 0 1 0 3 0zm9.001-18c-.395 0-.778-.155-1.06-.44l-3-2.998a1.498 1.498 0 0 1 0-2.121 1.496 1.496 0 0 1 2.12 0l1.778 1.776 3.462-4.616a1.5 1.5 0 1 1 2.399 1.8l-4.5 6c-.261.348-.66.566-1.094.595zm0 12c-.395 0-.778-.154-1.06-.439l-3-3a1.498 1.498 0 1 1 2.12-2.12l1.778 1.777 3.462-4.617a1.5 1.5 0 0 1 2.399 1.8l-4.5 6c-.261.348-.66.566-1.094.595zm16.5-14.998h-6a1.5 1.5 0 1 1 0-3.001h6a1.5 1.5 0 1 1 0 3zm0 11.998h-6a1.499 1.499 0 1 1 0-2.999h6a1.5 1.5 0 1 1 0 3z"/></defs><g><g transform="translate(-999 -3115)"><use fill="#fff" xlink:href="#x6jda"/></g></g></svg>