<svg xmlns="http://www.w3.org/2000/svg" xmlns:xlink="http://www.w3.org/1999/xlink" width="48" height="42" viewBox="0 0 48 42"><defs><path id="iz42a" d="M1043.248 2409.997h-40.5a3.754 3.754 0 0 1-3.75-3.75v-27.75c0 .827.672 1.5 1.5 1.5h1.5v26.25c0 .413.336.75.75.75h40.5c.412 0 .75-.337.75-.75v-26.25h1.5a1.5 1.5 0 0 0 0-3h-1.5v-5.25a.753.753 0 0 0-.75-.751h-40.5a.752.752 0 0 0-.75.751v5.25h-1.5a1.5 1.5 0 0 0-1.5 1.5v-6.75a3.754 3.754 0 0 1 3.75-3.75h40.5c2.069 0 3.75 1.683 3.75 3.75v34.5a3.753 3.753 0 0 1-3.75 3.75zm.75-33v3h-42v-3zm-39-1.5c-.39 0-.78-.165-1.065-.435a1.579 1.579 0 0 1-.435-1.065c0-.39.165-.78.435-1.065.57-.555 1.575-.555 2.13 0 .27.285.435.675.435 1.065 0 .39-.165.78-.435 1.065-.285.27-.675.434-1.065.434zm4.5 0c-.39 0-.78-.165-1.065-.435a1.583 1.583 0 0 1-.435-1.065c0-.39.165-.78.435-1.065.57-.555 1.56-.555 2.13 0 .27.285.435.675.435 1.065 0 .39-.165.78-.435 1.065-.285.27-.676.434-1.065.434zm22.5 25.5a1.499 1.499 0 0 1-1.06-2.56l4.408-4.41a.753.753 0 0 0 0-1.06l-4.409-4.408a1.5 1.5 0 1 1 2.122-2.12l4.408 4.408a3.753 3.753 0 0 1 0 5.302l-4.408 4.409c-.293.292-.677.439-1.061.439zm-18 0c-.384 0-.768-.147-1.06-.44l-4.409-4.408a3.754 3.754 0 0 1 0-5.302l4.41-4.409a1.499 1.499 0 1 1 2.121 2.121l-4.409 4.409a.752.752 0 0 0 0 1.059l4.41 4.41a1.498 1.498 0 0 1-1.064 2.56zm6 1.499a1.499 1.499 0 0 1-1.392-2.055l6-15a1.502 1.502 0 0 1 2.787 1.114l-6 15c-.238.588-.801.94-1.395.94z"/></defs><g><g transform="translate(-999 -2368)"><use fill="#fff" xlink:href="#iz42a"/></g></g></svg>