<svg xmlns="http://www.w3.org/2000/svg" xmlns:xlink="http://www.w3.org/1999/xlink" width="48" height="48" viewBox="0 0 48 48"><defs><path id="1261a" d="M476.498 2003.998c-.828 0-1.5-.674-1.5-1.501v-4.5c0-3.31 2.691-6 6-6h30c3.309 0 6 2.69 6 6v30h4.5c.83 0 1.5.67 1.5 1.5v4.5c0 3.308-2.69 6-6 6h-27c-3.309 0-6-2.692-6-6v-30zm37.5-6.001a3.004 3.004 0 0 0-3-3.001h-24.806c.512.883.806 1.908.806 3v36.001c0 1.655 1.346 3 3 3s3-1.345 3-3v-4.5a1.5 1.5 0 0 1 1.5-1.5h19.5zm-18 36a5.963 5.963 0 0 1-.804 3h21.804c1.654 0 3-1.345 3-3v-3h-24zm-18-33h6v-3a3.004 3.004 0 0 0-3-3.001c-1.655 0-3 1.347-3 3zm31.5 3h-18a1.5 1.5 0 0 1 0-3h18a1.5 1.5 0 1 1 0 3zm0 6h-18a1.5 1.5 0 0 1 0-3h18a1.5 1.5 0 1 1 0 3zm0 6h-18a1.5 1.5 0 0 1 0-3h18a1.5 1.5 0 1 1 0 3zm-9 6h-9a1.5 1.5 0 1 1 0-3h9c.83 0 1.5.67 1.5 1.5s-.67 1.5-1.5 1.5z"/></defs><g><g transform="translate(-475 -1992)"><use fill="#fff" xlink:href="#1261a"/></g></g></svg>