<svg xmlns="http://www.w3.org/2000/svg" xmlns:xlink="http://www.w3.org/1999/xlink" width="48" height="48" viewBox="0 0 48 48"><defs><path id="s8zsa" d="M1045.498 1666.997h-45a1.5 1.5 0 1 1 0-3v-13.5c0-2.48 2.02-4.5 4.5-4.5s4.5 2.02 4.5 4.5v13.5h3v-27c0-2.48 2.02-4.5 4.5-4.5s4.5 2.02 4.5 4.5v27h3v-40.5c0-2.48 2.019-4.5 4.5-4.5 2.48 0 4.5 2.02 4.5 4.5v40.5h3v-13.5c0-2.48 2.019-4.5 4.5-4.5s4.5 2.02 4.5 4.5v13.5a1.5 1.5 0 1 1 0 3zm-15-43.5a1.501 1.501 0 0 0-3 0v40.5h3zm12 27c0-.827-.672-1.502-1.5-1.502s-1.5.675-1.5 1.502v13.5h3zm-36 0c0-.827-.674-1.502-1.5-1.502s-1.5.675-1.5 1.502v13.5h3zm12-13.5c0-.826-.674-1.5-1.5-1.5-.827 0-1.5.674-1.5 1.5v27h3z"/></defs><g><g transform="translate(-999 -1619)"><use fill="#fff" xlink:href="#s8zsa"/></g></g></svg>