<svg xmlns="http://www.w3.org/2000/svg" xmlns:xlink="http://www.w3.org/1999/xlink" width="37" height="37" viewBox="0 0 37 37"><defs><path id="8qxga" d="M81.159 2029.447h-13.5a1.125 1.125 0 0 1 0-2.25h13.5a1.126 1.126 0 0 1 0 2.25zm0 4.5h-13.5a1.126 1.126 0 0 1 0-2.25h13.5a1.125 1.125 0 1 1 0 2.25zm0 4.5h-13.5a1.125 1.125 0 1 1 0-2.25h13.5a1.125 1.125 0 0 1 0 2.25zm-6.75 4.5h-6.75a1.124 1.124 0 1 1 0-2.25h6.75a1.125 1.125 0 1 1 0 2.25zm16.874 6.75a1.125 1.125 0 0 1-1.124-1.126v-18.608a1.125 1.125 0 1 1 2.25 0v18.608c0 .622-.503 1.126-1.126 1.126zm0 4.5c-.257 0-.507-.022-.752-.063a1.13 1.13 0 0 1-.372.064H64.284a4.505 4.505 0 0 1-4.5-4.5v-28.69c0-1.55 1.26-2.811 2.81-2.811h23.63a2.815 2.815 0 0 1 2.81 2.81v28.69c0 1.241 1.009 2.25 2.25 2.25 1.24 0 2.25-1.009 2.25-2.25v-18a1.126 1.126 0 1 1 2.25 0v18c0 2.482-2.018 4.5-4.5 4.5zm-28.69-33.75a.56.56 0 0 0-.56.56v28.69c0 1.241 1.01 2.25 2.25 2.25h23.104a4.47 4.47 0 0 1-.603-2.25v-28.69c0-.309-.253-.56-.56-.56z"/></defs><g><g transform="translate(-59 -2018)"><use fill="#fff" xlink:href="#8qxga"/></g></g></svg>