<svg xmlns="http://www.w3.org/2000/svg" xmlns:xlink="http://www.w3.org/1999/xlink" width="48" height="48" viewBox="0 0 48 48"><defs><path id="ur7oa" d="M1036.504 3420.497h-1.507v3a1.499 1.499 0 1 1-2.999 0v-3h-7.5l.002 3a1.5 1.5 0 0 1-3 0l-.002-3h-7.5v3a1.5 1.5 0 1 1-3 0v-3h-1.506a6 6 0 0 1-5.994-5.993v-1.508h-3a1.5 1.5 0 1 1 0-2.999h3v-7.502l-3 .001a1.5 1.5 0 1 1 0-2.998l3-.002v-7.498l-3 .001a1.5 1.5 0 1 1 0-3h3v-1.508a6 6 0 0 1 5.994-5.994H1011v-3a1.499 1.499 0 1 1 2.999 0v3h7.5v-3a1.499 1.499 0 1 1 3 0l.001 3h7.499l-.001-3a1.499 1.499 0 1 1 3 0v3h1.507a6.002 6.002 0 0 1 5.994 5.994V3389h3a1.5 1.5 0 1 1 0 3h-3v7.498h3a1.5 1.5 0 0 1 0 2.998h-3v7.501h3c.83 0 1.5.67 1.5 1.5s-.67 1.5-1.5 1.5h-3v1.507a6.002 6.002 0 0 1-5.994 5.993zm-27.012-36a3 3 0 0 0-2.995 2.994v27.013a2.998 2.998 0 0 0 2.995 2.992h27.012a2.998 2.998 0 0 0 2.995-2.992v-27.013a3 3 0 0 0-2.995-2.994zm18.756 25.5h-10.5a3.754 3.754 0 0 1-3.75-3.751v-10.499a3.756 3.756 0 0 1 3.75-3.75h10.5a3.755 3.755 0 0 1 3.75 3.75v10.499a3.753 3.753 0 0 1-3.75 3.751zm-10.5-15a.76.76 0 0 0-.75.75v10.499a.76.76 0 0 0 .75.752h10.5a.76.76 0 0 0 .75-.752v-10.499a.759.759 0 0 0-.75-.75z"/></defs><g><g transform="translate(-999 -3377)"><use fill="#00bdca" xlink:href="#ur7oa"/></g></g></svg>