<svg xmlns="http://www.w3.org/2000/svg" xmlns:xlink="http://www.w3.org/1999/xlink" width="48" height="48" viewBox="0 0 48 48"><defs><path id="qrroa" d="M498.96 3243.948c-6.001 0-11.457-2.387-15.474-6.264l-5.807 5.828a1.486 1.486 0 0 1-2.105 0 1.494 1.494 0 0 1 0-2.112l5.906-5.926a22.34 22.34 0 0 1-4.854-13.93c0-12.356 10.02-22.408 22.334-22.408s22.333 10.052 22.333 22.407a22.34 22.34 0 0 1-4.853 13.93l5.906 5.927a1.495 1.495 0 0 1 0 2.112 1.486 1.486 0 0 1-2.105 0l-5.808-5.828c-4.017 3.877-9.472 6.264-15.473 6.264zm0-41.824c-10.672 0-19.355 8.711-19.355 19.42 0 10.706 8.683 19.416 19.355 19.416s19.356-8.71 19.356-19.417c0-10.708-8.684-19.419-19.356-19.419zm-22.334 3.852a1.497 1.497 0 0 1-1.17-2.416c2.258-2.88 5-5.301 8.152-7.197a1.484 1.484 0 0 1 2.043.512 1.496 1.496 0 0 1-.511 2.049 26.946 26.946 0 0 0-7.343 6.48 1.48 1.48 0 0 1-1.17.572zm44.669 0a1.48 1.48 0 0 1-1.172-.572 26.947 26.947 0 0 0-7.345-6.482 1.497 1.497 0 0 1-.51-2.05 1.486 1.486 0 0 1 2.042-.511 29.951 29.951 0 0 1 8.153 7.196 1.497 1.497 0 0 1-1.168 2.419zm-23.824 2.122c0-.824.666-1.493 1.489-1.493.822 0 1.489.67 1.489 1.493v13.398a1.504 1.504 0 0 1-.693 1.31l-8.903 5.954a1.491 1.491 0 0 1-2.065-.413 1.497 1.497 0 0 1 .412-2.072l8.27-5.533z"/></defs><g><g transform="translate(-475 -3196)"><use fill="#00bdca" xlink:href="#qrroa"/></g></g></svg>