<svg xmlns="http://www.w3.org/2000/svg" xmlns:xlink="http://www.w3.org/1999/xlink" width="48" height="35" viewBox="0 0 48 35"><defs><path id="qt89a" d="M480.998 2870.496c-3.309 0-6-2.69-6-5.998 0-3.31 2.691-6 6-6 .876 0 1.708.187 2.458.526l4.743-5.928a5.97 5.97 0 0 1-1.202-3.6c0-3.308 2.692-5.999 6.001-5.999 3.31 0 6 2.691 6 6 0 .81-.16 1.581-.452 2.286l2.706 2.03a5.97 5.97 0 0 1 3.746-1.317c.778 0 1.522.15 2.205.42l5.166-7.105a5.975 5.975 0 0 1-1.371-3.815c0-3.307 2.69-6 6-6 3.309 0 6 2.693 6 6a6.008 6.008 0 0 1-6 6.002 5.968 5.968 0 0 1-2.206-.42l-5.165 7.105a5.974 5.974 0 0 1 1.37 3.814c0 3.308-2.69 6-5.999 6-3.31 0-6-2.692-6-6 0-.809.161-1.58.452-2.286l-2.706-2.03a5.972 5.972 0 0 1-3.746 1.316 5.97 5.97 0 0 1-2.458-.526l-4.743 5.93a5.971 5.971 0 0 1 1.2 3.597 6.004 6.004 0 0 1-6 5.998zm0-9c-1.654 0-3 1.347-3 3.002 0 1.653 1.346 3 3 3s3-1.347 3-3c0-1.655-1.346-3.001-3-3.001zm12-14.998c-1.655 0-3 1.345-3 2.999 0 1.656 1.345 3 3 3s3-1.344 3-3a3.002 3.002 0 0 0-3-2.999zm24-7.501c-1.655 0-3 1.346-3 3 0 .933.427 1.768 1.097 2.318a1.528 1.528 0 0 1 .285.208 3.003 3.003 0 0 0 4.618-2.527c0-1.653-1.345-3-3-3zm-12 16.5c-1.655 0-3 1.347-3 3 0 1.655 1.345 3 3 3s3-1.345 3-3c0-.931-.427-1.765-1.095-2.316a1.518 1.518 0 0 1-.29-.21 2.981 2.981 0 0 0-1.615-.474z"/></defs><g><g transform="translate(-475 -2836)"><use fill="#00bdca" xlink:href="#qt89a"/></g></g></svg>