<svg xmlns="http://www.w3.org/2000/svg" xmlns:xlink="http://www.w3.org/1999/xlink" width="48" height="47" viewBox="0 0 48 47"><defs><path id="2aqha" d="M478.748 3403.497a20.21 20.21 0 0 1 12.75-18.801c.029-4.112 3.382-7.448 7.5-7.448 4.12 0 7.475 3.338 7.5 7.45a20.21 20.21 0 0 1 12.75 18.8c0 1.027-.083 2.071-.249 3.12a7.508 7.508 0 0 1 4 6.631c0 4.135-3.365 7.5-7.501 7.5a7.456 7.456 0 0 1-4.13-1.241 20.196 20.196 0 0 1-12.37 4.24 20.201 20.201 0 0 1-12.37-4.24 7.457 7.457 0 0 1-4.13 1.241c-4.135 0-7.5-3.365-7.5-7.5a7.508 7.508 0 0 1 3.999-6.632 20.043 20.043 0 0 1-.25-3.12zm38.225 5.521a1.508 1.508 0 0 1-.36-.129 4.505 4.505 0 0 0-5.615 4.36c0 1.222.49 2.332 1.283 3.144a1.498 1.498 0 0 1 .215.205 4.482 4.482 0 0 0 3.002 1.15c2.481 0 4.5-2.019 4.5-4.499a4.507 4.507 0 0 0-2.914-4.211 1.71 1.71 0 0 1-.111-.02zm-.726-5.52a17.21 17.21 0 0 0-10.352-15.802 7.511 7.511 0 0 1-6.896 4.55 7.511 7.511 0 0 1-6.898-4.553 17.22 17.22 0 0 0-10.353 15.804c0 .748.052 1.51.157 2.275.195-.016.393-.024.593-.024 4.136 0 7.5 3.365 7.5 7.501a7.456 7.456 0 0 1-1.232 4.115 17.205 17.205 0 0 0 10.233 3.382c3.688 0 7.27-1.192 10.231-3.381a7.456 7.456 0 0 1-1.233-4.116c0-4.136 3.365-7.5 7.5-7.5.2 0 .398.007.594.023a16.87 16.87 0 0 0 .156-2.274zm-35.223 5.519a1.56 1.56 0 0 1-.11.02 4.508 4.508 0 0 0-2.916 4.212c0 2.48 2.02 4.5 4.5 4.5a4.483 4.483 0 0 0 3.017-1.166c.06-.068.124-.129.193-.183a4.484 4.484 0 0 0 1.29-3.15 4.505 4.505 0 0 0-5.62-4.36c-.11.056-.228.099-.354.127zm17.975-28.77a4.506 4.506 0 0 0-4.47 5.018c.042.137.064.276.067.414a4.51 4.51 0 0 0 4.403 3.568 4.51 4.51 0 0 0 4.401-3.562c.003-.14.025-.282.07-.422a4.506 4.506 0 0 0-4.47-5.016z"/></defs><g><g transform="translate(-475 -3377)"><use fill="#00bdca" xlink:href="#2aqha"/></g></g></svg>