<svg xmlns="http://www.w3.org/2000/svg" xmlns:xlink="http://www.w3.org/1999/xlink" width="48" height="48" viewBox="0 0 48 48"><defs><path id="xg21a" d="M1043.244 2883.996h-40.492a3.758 3.758 0 0 1-3.754-3.753v-32.99a3.76 3.76 0 0 1 3.754-3.756h11.246v-3.638c0-2.13 1.599-3.863 3.565-3.863h10.87c1.966 0 3.565 1.734 3.565 3.863v3.638h11.246a3.76 3.76 0 0 1 3.754 3.756v32.99a3.758 3.758 0 0 1-3.754 3.753zm-40.492-37.498a.756.756 0 0 0-.754.755v20.244h42v-20.244a.756.756 0 0 0-.754-.755zm-.754 33.745c0 .415.339.754.754.754h40.492c.415 0 .754-.339.754-.754v-9.747h-42zm27-40.384c0-.486-.303-.862-.566-.862h-10.869c-.266 0-.565.37-.565.862v3.638h12zm-6 23.139c-.39 0-.78-.165-1.065-.435a1.58 1.58 0 0 1-.435-1.066c0-.39.164-.778.435-1.064.555-.556 1.56-.556 2.13 0 .27.286.435.675.435 1.064 0 .39-.165.78-.435 1.066-.285.27-.675.435-1.065.435z"/></defs><g><g transform="translate(-999 -2836)"><use fill="#00bdca" xlink:href="#xg21a"/></g></g></svg>