<svg xmlns="http://www.w3.org/2000/svg" xmlns:xlink="http://www.w3.org/1999/xlink" width="48" height="48" viewBox="0 0 48 48"><defs><path id="jplxa" d="M1043.247 3603.997h-40.497a3.755 3.755 0 0 1-3.752-3.752v-40.498a3.755 3.755 0 0 1 3.75-3.75h40.5a3.754 3.754 0 0 1 3.75 3.75v40.498a3.755 3.755 0 0 1-3.751 3.752zm-40.5-45a.762.762 0 0 0-.75.75v12.75h5.904l1.87-2.662a1.5 1.5 0 0 1 2.592.242l2.955 6.5 4.764-13.577a1.5 1.5 0 0 1 2.882.183l3.52 16.432 4.137-9.514c.244-.56.822-.891 1.407-.904a1.495 1.495 0 0 1 1.368.955l1.807 4.64.786-1.496c.26-.49.772-.799 1.327-.799h6.682v-12.75a.762.762 0 0 0-.75-.75zm-.75 41.248c0 .413.338.752.753.752h40.497c.414 0 .751-.339.751-.752v-8.248h-42zm42.001-24.748h-5.776l-1.898 3.599a1.5 1.5 0 1 1-2.724-.155l-1.678-4.308-4.548 10.46a1.497 1.497 0 0 1-1.526.896 1.493 1.493 0 0 1-1.317-1.177l-3.382-15.787-4.236 12.07a1.496 1.496 0 0 1-1.35.999 1.498 1.498 0 0 1-1.431-.878l-3.416-7.51-.81 1.152c-.281.4-.739.64-1.225.64h-6.683v13.5h42zm-4.5 19.5a1.5 1.5 0 1 1 0 3 1.5 1.5 0 0 1 0-3zm-4.5 0a1.5 1.5 0 1 1 .002 2.999 1.5 1.5 0 0 1-.002-2.999z"/></defs><g><g transform="translate(-999 -3556)"><use fill="#00bdca" xlink:href="#jplxa"/></g></g></svg>