<svg xmlns="http://www.w3.org/2000/svg" xmlns:xlink="http://www.w3.org/1999/xlink" width="48" height="48" viewBox="0 0 48 48"><defs><path id="g7yla" d="M495.44 3530.89l1.054-1.058 5.472 5.487 1.936-1.94a3.567 3.567 0 0 0 1.047-2.536v-9.49l2.983-2.992v12.482a6.53 6.53 0 0 1-1.922 4.65l-2.99 3a1.488 1.488 0 0 1-2.108 0l-7.458-7.48a1.514 1.514 0 0 1-.054-.057 1.485 1.485 0 0 0 2.04-.066zm-2.11 0l-10.193-10.22a1.525 1.525 0 0 1-.062-.068 1.489 1.489 0 0 0 2.048-.058 1.497 1.497 0 0 0 0-2.115l-.931-.933 8.455-8.479H496a1.494 1.494 0 0 0 0-2.99h-.371l9.981-10.01c2.937-2.946 5.104-4.205 7.724-4.496l3.744-.42a5.151 5.151 0 0 1 4.248 1.496 5.196 5.196 0 0 1 1.49 4.259l-.417 3.752c-.292 2.63-1.551 4.802-4.488 7.745l-9.979 10.008v-.37c0-.827-.667-1.497-1.491-1.497-.825 0-1.492.67-1.492 1.497v3.362l-8.455 8.48-.931-.934a1.487 1.487 0 0 0-2.109 0 1.496 1.496 0 0 0-.054 2.057 1.476 1.476 0 0 1-.07-.066zm-10.193-12.337l1.055-1.057-5.472-5.488 1.936-1.941a3.55 3.55 0 0 1 2.528-1.05h9.463l2.982-2.99h-12.445c-1.753 0-3.4.684-4.637 1.926l-2.99 2.998a1.496 1.496 0 0 0 0 2.115l7.456 7.478c.02.02.04.04.062.058a1.498 1.498 0 0 1 .062-2.049zm3.166 1.058l2.986 2.995-1.055 1.058a1.496 1.496 0 0 0 1.054 2.553c.382 0 .764-.147 1.055-.438l1.055-1.058 2.987 2.995 21.42-21.477c2.771-2.782 3.455-4.394 3.63-5.96l.415-3.754a2.204 2.204 0 0 0-.633-1.814 2.204 2.204 0 0 0-1.81-.637l-3.744.417c-1.561.174-3.168.86-5.943 3.643zm5.095 5.11l-2.109-2.115 8.64-8.664a1.487 1.487 0 0 1 2.109 0 1.499 1.499 0 0 1 0 2.116zm-14.788 14.209a1.49 1.49 0 0 1-1.1-.486 1.503 1.503 0 0 1-.317-1.478l4.412-13.399a1.487 1.487 0 0 1 1.885-.95 1.499 1.499 0 0 1 .948 1.89l-3.578 10.866 10.708-2.51a1.495 1.495 0 1 1 .679 2.913l-13.3 3.115zm38.268-35.384a1.49 1.49 0 0 1-1.055-.436l-2.982-2.992a1.498 1.498 0 0 1 0-2.115 1.486 1.486 0 0 1 2.108 0l2.983 2.991a1.498 1.498 0 0 1 0 2.116 1.48 1.48 0 0 1-1.054.436z"/></defs><g><g transform="translate(-475 -3491)"><use fill="#fff" xlink:href="#g7yla"/></g></g></svg>