<svg xmlns="http://www.w3.org/2000/svg" xmlns:xlink="http://www.w3.org/1999/xlink" width="23" height="20" viewBox="0 0 23 20"><defs><path id="59gpa" d="M564.398 5935.42l21.75-8.38a.624.624 0 0 1 .835.71l-3.903 18.75a.625.625 0 0 1-.978.376l-5.328-3.863a.883.883 0 0 0-1.075.03l-2.953 2.405a.624.624 0 0 1-.991-.298l-2.05-6.588-5.3-1.976a.623.623 0 0 1-.007-1.166zm6.571 3.261l1.12 3.93c.078.28.484.252.522-.037l.292-2.155a1.77 1.77 0 0 1 .548-1.059l8.549-7.934c.159-.148-.032-.4-.219-.286l-10.356 6.37a1.039 1.039 0 0 0-.456 1.171z"/></defs><g><g transform="translate(-564 -5927)"><use fill="#1d354e" xlink:href="#59gpa"/></g></g></svg>